<?xml version="1.0" encoding="iso-8859-1"?>
<!-- Generator: Adobe Illustrator 18.1.1, SVG Export Plug-In . SVG Version: 6.00 Build 0)  -->
<svg version="1.1" id="Capa_1" xmlns="http://www.w3.org/2000/svg" xmlns:xlink="http://www.w3.org/1999/xlink" x="0px" y="0px"
	 viewBox="0 0 30.051 30.051" style="enable-background:new 0 0 30.051 30.051;" xml:space="preserve">
<g>
	<path style="fill:#030104;" d="M25.651,4.399c-5.869-5.865-15.383-5.865-21.249,0c-5.869,5.873-5.869,15.381,0,21.254
		c5.868,5.865,15.379,5.865,21.249-0.004C31.517,19.78,31.519,10.271,25.651,4.399z M6.178,23.878
		c-4.888-4.891-4.888-12.812,0-17.703c4.885-4.889,12.809-4.889,17.7,0c4.887,4.891,4.887,12.812,0,17.703
		C18.991,28.765,11.067,28.765,6.178,23.878z"/>
	<path style="fill:#030104;" d="M10.112,9.995l7.008,0.662c0,0,0.934-0.025,0.414,0.496c-0.523,0.525-1.787,1.785-1.787,1.785
		s0.307,0.309,0.777,0.781c1.352,1.348,3.805,3.803,4.805,4.801c0,0,0.34,0.203-0.072,0.611c-0.412,0.412-2.221,2.223-2.516,2.516
		c-0.295,0.297-0.516,0.062-0.516,0.062c-0.971-0.971-3.506-3.51-4.811-4.811c-0.423-0.422-0.813-0.817-0.813-0.817
		s-1.018,1.016-1.652,1.648c-0.637,0.639-0.541-0.363-0.541-0.363s-0.861-6.121-0.861-6.873C9.546,9.948,10.112,9.995,10.112,9.995z
		"/>
</g>
<g>
</g>
<g>
</g>
<g>
</g>
<g>
</g>
<g>
</g>
<g>
</g>
<g>
</g>
<g>
</g>
<g>
</g>
<g>
</g>
<g>
</g>
<g>
</g>
<g>
</g>
<g>
</g>
<g>
</g>
</svg>
