<?xml version="1.0" standalone="no"?>
<!DOCTYPE svg PUBLIC "-//W3C//DTD SVG 1.1//EN" "http://www.w3.org/Graphics/SVG/1.1/DTD/svg11.dtd" >
<svg xmlns="http://www.w3.org/2000/svg" xmlns:xlink="http://www.w3.org/1999/xlink" version="1.1">
<metadata>
Created by FontForge 20190801 at Sun Dec 30 08:12:43 2018
 By Jimmy Wärting
Typeface (c) Darrell Flood. 2018. All Rights Reserved
</metadata>
<defs>
<font id="BigBlackBear" horiz-adv-x="1300" >
  <font-face 
    font-family="Big Black Bear"
    font-weight="400"
    font-stretch="normal"
    units-per-em="2048"
    panose-1="2 0 5 0 0 0 0 0 0 0"
    ascent="1638"
    descent="-410"
    x-height="1400"
    cap-height="1400"
    bbox="50 -400 2100 2033"
    underline-thickness="150"
    underline-position="-292"
    unicode-range="U+001D-2212"
  />
<missing-glyph horiz-adv-x="1500" 
 />
    <glyph glyph-name=".notdef" horiz-adv-x="1500" 
 />
    <glyph glyph-name=".null" horiz-adv-x="0" 
 />
    <glyph glyph-name=".null" horiz-adv-x="0" 
 />
    <glyph glyph-name="nonmarkingreturn" horiz-adv-x="508" 
 />
    <glyph glyph-name="space" unicode=" " horiz-adv-x="508" 
 />
    <glyph glyph-name="space" unicode="&#xa0;" horiz-adv-x="508" 
 />
    <glyph glyph-name="exclam" unicode="!" horiz-adv-x="700" 
d="M150 600l-100 800h600l-100 -800h-400zM527 427q73 -73 73 -177t-73 -177t-177 -73t-177 73t-73 177t73 177t177 73t177 -73z" />
    <glyph glyph-name="quotedbl" unicode="&#x22;" horiz-adv-x="1000" 
d="M450 1400v-600h-400v600h400zM950 1400v-600h-400v600h400z" />
    <glyph glyph-name="numbersign" unicode="#" horiz-adv-x="1500" 
d="M150 600v200h-100v400h100v200h450v-200h300v200h450v-200h100v-400h-100v-200h100v-400h-100v-200h-450v200h-300v-200h-450v200h-100v400h100zM600 800v-200h300v200h-300z" />
    <glyph glyph-name="dollar" unicode="$" 
d="M400 1398v102h400v-100h350v-400h-500q-100 0 -100 -46q0 -54 100 -54h200q400 0 400 -446q0 -454 -400 -454h-50v-100h-400v100h-250v400h500q100 0 100 54q0 46 -100 46h-200q-400 0 -400 454q0 417 350 444z" />
    <glyph glyph-name="percent" unicode="%" horiz-adv-x="1500" 
d="M1400 1400l-849 -1400h-451l853 1400h447zM1377 427q73 -73 73 -177t-73 -177t-177 -73t-177 73t-73 177t73 177t177 73t177 -73zM477 1327q73 -73 73 -177t-73 -177t-177 -73t-177 73t-73 177t73 177t177 73t177 -73z" />
    <glyph glyph-name="ampersand" unicode="&#x26;" horiz-adv-x="1500" 
d="M850 950q0 50 -100 50l-200 -1q-100 -2 -100 -52q0 -47 100 -47h200q100 0 100 50zM850 450q0 50 -100 50l-200 -1q-100 -2 -100 -52q0 -47 100 -47h200q100 0 100 50zM1050 700q150 0 300 100l100 -400q-150 -50 -200 -50v-450h-400v100h-400q-400 0 -400 400
q0 250 200 300q-200 50 -200 300q0 400 400 400h400q400 0 400 -400q0 -250 -200 -300z" />
    <glyph glyph-name="quotesingle" unicode="'" horiz-adv-x="500" 
d="M450 1400v-600h-400v600h400z" />
    <glyph glyph-name="parenleft" unicode="(" horiz-adv-x="800" 
d="M50 900q0 700 700 700v-400q-300 0 -300 -300v-400q0 -300 300 -300v-400q-700 0 -700 700v400z" />
    <glyph glyph-name="parenright" unicode=")" horiz-adv-x="800" 
d="M750 500q0 -700 -700 -700v400q300 0 300 300v400q0 300 -300 300v400q700 0 700 -700v-400z" />
    <glyph glyph-name="asterisk" unicode="*" horiz-adv-x="1100" 
d="M650 1142l182 183l142 -141l-183 -184h259v-200h-259l183 -184l-142 -141l-182 183v-258h-200v258l-182 -183l-142 141l183 184h-259v200h259l-183 184l142 141l182 -183v258h200v-258z" />
    <glyph glyph-name="plus" unicode="+" horiz-adv-x="1100" 
d="M750 900h300v-400h-300v-300h-400v300h-300v400h300v300h400v-300z" />
    <glyph glyph-name="comma" unicode="," horiz-adv-x="750" 
d="M700 400l-250 -700h-400l150 700h500z" />
    <glyph glyph-name="hyphen" unicode="-" horiz-adv-x="800" 
d="M750 900v-400h-700v400h700z" />
    <glyph glyph-name="hyphen" unicode="&#xad;" horiz-adv-x="800" 
d="M750 900v-400h-700v400h700z" />
    <glyph glyph-name="period" unicode="." horiz-adv-x="600" 
d="M477 427q73 -73 73 -177t-73 -177t-177 -73t-177 73t-73 177t73 177t177 73t177 -73z" />
    <glyph glyph-name="slash" unicode="/" horiz-adv-x="1415" 
d="M1365 1600l-897 -1800h-418l909 1800h406z" />
    <glyph glyph-name="zero" unicode="0" horiz-adv-x="1500" 
d="M750 0q-290 0 -495 205t-205 495t205 495t495 205t495 -205t205 -495t-205 -495t-495 -205zM750 900q-83 0 -141.5 -58.5t-58.5 -141.5t58.5 -141.5t141.5 -58.5t141.5 58.5t58.5 141.5t-58.5 141.5t-141.5 58.5z" />
    <glyph glyph-name="one" unicode="1" horiz-adv-x="700" 
d="M650 1400v-1400h-500v1000h-100l100 400h500z" />
    <glyph glyph-name="two" unicode="2" horiz-adv-x="1200" 
d="M750 1400q400 0 400 -447q0 -453 -400 -453q-200 0 -200 -100h600v-400h-1100v500q0 400 400 400q200 0 200 41q0 59 -100 59h-500v400h700z" />
    <glyph glyph-name="three" unicode="3" horiz-adv-x="1200" 
d="M1150 400q0 -400 -400 -400h-700v400h500q100 0 100 50t-100 50h-300v400h300q100 0 100 50t-100 50h-500v400h700q400 0 400 -400q0 -300 -200 -300q200 0 200 -300z" />
    <glyph glyph-name="four" unicode="4" 
d="M250 1400h450l-100 -500h150v500h500v-1400h-500v500h-700z" />
    <glyph glyph-name="five" unicode="5" horiz-adv-x="1200" 
d="M50 0v400h500q100 0 100 59q0 41 -100 41h-500v900h1100v-400h-600v-100h200q400 0 400 -441q0 -459 -400 -459h-700z" />
    <glyph glyph-name="six" unicode="6" horiz-adv-x="1200" 
d="M677 400q73 0 73 50t-73 50h-154q-73 0 -73 -50t73 -50h154zM550 1000q-100 0 -100 -100h300q400 0 400 -441q0 -459 -400 -459h-300q-400 0 -400 459v542q0 399 400 399h600v-400h-500z" />
    <glyph glyph-name="seven" unicode="7" horiz-adv-x="1200" 
d="M650 0h-500l350 1000h-450v400h1100z" />
    <glyph glyph-name="eight" unicode="8" 
d="M850 950q0 50 -100 50l-200 -1q-100 -2 -100 -52q0 -47 100 -47h200q100 0 100 50zM50 1000q0 400 400 400h400q400 0 400 -400q0 -300 -200 -300q200 0 200 -300q0 -400 -400 -400h-400q-400 0 -400 400q0 300 200 300q-200 0 -200 300zM850 450q0 50 -100 50l-200 -1
q-100 -2 -100 -52q0 -47 100 -47h200q100 0 100 50z" />
    <glyph glyph-name="nine" unicode="9" horiz-adv-x="1200" 
d="M523 1000q-73 0 -73 -50t73 -50h154q73 0 73 50t-73 50h-154zM650 400q100 0 100 100h-300q-400 0 -400 441q0 459 400 459h300q400 0 400 -459v-542q0 -399 -400 -399h-600v400h500z" />
    <glyph glyph-name="colon" unicode=":" horiz-adv-x="600" 
d="M477 427q73 -73 73 -177t-73 -177t-177 -73t-177 73t-73 177t73 177t177 73t177 -73zM477 1027q73 -73 73 -177t-73 -177t-177 -73t-177 73t-73 177t73 177t177 73t177 -73z" />
    <glyph glyph-name="semicolon" unicode=";" horiz-adv-x="800" 
d="M750 500l-300 -600h-400l200 600h500zM677 1027q73 -73 73 -177t-73 -177t-177 -73t-177 73t-73 177t73 177t177 73t177 -73z" />
    <glyph glyph-name="semicolon" unicode="&#x37e;" horiz-adv-x="800" 
d="M750 500l-300 -600h-400l200 600h500zM677 1027q73 -73 73 -177t-73 -177t-177 -73t-177 73t-73 177t73 177t177 73t177 -73z" />
    <glyph glyph-name="less" unicode="&#x3c;" horiz-adv-x="1200" 
d="M50 900l1100 500v-400l-700 -300l700 -300v-400l-1100 500v400z" />
    <glyph glyph-name="equal" unicode="=" horiz-adv-x="1100" 
d="M1050 1200v-400h-1000v400h1000zM1050 600v-400h-1000v400h1000z" />
    <glyph glyph-name="greater" unicode="&#x3e;" horiz-adv-x="1200" 
d="M1150 500l-1100 -500v400l700 300l-700 300v400l1100 -500v-400z" />
    <glyph glyph-name="question" unicode="?" horiz-adv-x="1200" 
d="M777 427q73 -73 73 -177t-73 -177t-177 -73t-177 73t-73 177t73 177t177 73t177 -73zM350 900h200q100 0 100 41q0 59 -100 59h-500v400h700q400 0 400 -400q0 -300 -300 -300l-50 -100h-400z" />
    <glyph glyph-name="at" unicode="@" horiz-adv-x="1510" 
d="M770 425q-79 -67 -201 -67q-113 0 -167 66q-38 46 -38 114q0 30 7 65q38 180 188 318.5t326 138.5q90 0 246 -77q-112 -235 -131 -291.5t-28 -95.5q-3 -14 -3 -24q0 -20 13 -20q73 0 141 92.5t95 221.5q18 62 18 112q0 86 -52 138q-82 83 -229 83q-233 0 -421 -175
t-244 -441q-12 -56 -12 -106q0 -102 52 -173q77 -105 236 -105q84 0 173 29t167 100l92 -164q-108 -80 -242.5 -122t-250.5 -42q-247 0 -369 157q-86 109 -86 264q0 67 16 142q76 357 344 596t606 239q243 0 361 -135q83 -95 83 -238q0 -61 -15 -130q-44 -206 -189 -366.5
t-326 -160.5q-122 0 -160 57zM842 886q-70 0 -142 -86t-94 -187q-3 -15 -3 -27q0 -38 34 -38q47 0 90 40t71.5 109t71.5 180q-7 9 -28 9z" />
    <glyph glyph-name="A" unicode="A" horiz-adv-x="1500" 
d="M575 100l-25 -100h-500l400 1400h600l400 -1400h-500l-25 100h-350zM825 500l-75 300l-75 -300h150z" />
    <glyph glyph-name="B" unicode="B" 
d="M50 0v1400h800q400 0 400 -400q0 -250 -200 -300q200 -50 200 -300q0 -400 -400 -400h-800zM550 1000v-150h100q100 0 100 74q0 76 -100 76h-100zM550 550v-150h100q100 0 100 76q0 74 -100 74h-100z" />
    <glyph glyph-name="C" unicode="C" 
d="M750 0q-290 0 -495 205t-205 495t205 495t495 205t495 -205l5 -5l-354 -352l-4 4q-59 58 -142 58t-141.5 -58.5t-58.5 -141.5t58.5 -141.5t141.5 -58.5q82 0 140 57l354 -353q-205 -204 -494 -204z" />
    <glyph glyph-name="D" unicode="D" 
d="M50 0v1400h500q700 0 700 -700t-700 -700h-500zM550 500q200 0 200 200t-200 200v-400z" />
    <glyph glyph-name="E" unicode="E" horiz-adv-x="1100" 
d="M1050 1400v-400h-500v-100h400v-400h-400v-100h500v-400h-1000v1400h1000z" />
    <glyph glyph-name="F" unicode="F" horiz-adv-x="1100" 
d="M1050 1400v-400h-500v-100h500v-400h-500v-500h-500v1400h1000z" />
    <glyph glyph-name="G" unicode="G" horiz-adv-x="1400" 
d="M750 0q-290 0 -495 205t-205 495t205 495t495 205t495 -205l5 -5l-354 -352l-4 4q-59 58 -142 58t-141.5 -58.5t-58.5 -141.5t58.5 -141.5t141.5 -58.5q55 0 100 26v274h500v-800h-600z" />
    <glyph glyph-name="H" unicode="H" 
d="M50 1400h500v-500h200v500h500v-1400h-500v500h-200v-500h-500v1400z" />
    <glyph glyph-name="I" unicode="I" horiz-adv-x="600" 
d="M550 1400v-1400h-500v1400h500z" />
    <glyph glyph-name="J" unicode="J" horiz-adv-x="897" 
d="M250 500q100 0 100 189v711h497v-700q0 -700 -597 -700h-200v500h200z" />
    <glyph glyph-name="K" unicode="K" horiz-adv-x="1400" 
d="M550 1100l200 300h600l-550 -700l550 -700h-600l-200 300v-300h-500v1400h500v-300z" />
    <glyph glyph-name="L" unicode="L" horiz-adv-x="1000" 
d="M50 1400h500v-1000h400v-400h-900v1400z" />
    <glyph glyph-name="M" unicode="M" horiz-adv-x="1700" 
d="M1650 1400v-1400h-500v667l-300 -417l-300 414v-664h-500v1400h600l200 -350l200 350h600z" />
    <glyph glyph-name="N" unicode="N" 
d="M550 600v-600h-500v1400h500l200 -600v600h500v-1400h-500z" />
    <glyph glyph-name="O" unicode="O" horiz-adv-x="1500" 
d="M750 0q-290 0 -495 205t-205 495t205 495t495 205t495 -205t205 -495t-205 -495t-495 -205zM750 900q-83 0 -141.5 -58.5t-58.5 -141.5t58.5 -141.5t141.5 -58.5t141.5 58.5t58.5 141.5t-58.5 141.5t-141.5 58.5z" />
    <glyph glyph-name="P" unicode="P" 
d="M550 400v-400h-500v1400h800q400 0 400 -500t-400 -500h-300zM550 1000v-200h100q100 0 100 100t-100 100h-100z" />
    <glyph glyph-name="Q" unicode="Q" horiz-adv-x="1550" 
d="M750 900q-83 0 -141.5 -58.5t-58.5 -141.5t58.5 -141.5t141.5 -58.5t141.5 58.5t58.5 141.5t-58.5 141.5t-141.5 58.5zM916 18q-79 -18 -166 -18q-290 0 -495 205t-205 495t205 495t495 205t495 -205t205 -495q0 -223 -122 -396l172 -204l-400 -300z" />
    <glyph glyph-name="R" unicode="R" 
d="M550 1000v-200h100q100 0 100 100t-100 100h-100zM550 400v-400h-500v1400h800q400 0 400 -500q0 -369 -217 -465l217 -435h-500z" />
    <glyph glyph-name="S" unicode="S" 
d="M450 1400h700v-400h-500q-100 0 -100 -46q0 -54 100 -54h200q400 0 400 -446q0 -454 -400 -454h-700v400h500q100 0 100 54q0 46 -100 46h-200q-400 0 -400 454q0 446 400 446z" />
    <glyph glyph-name="T" unicode="T" horiz-adv-x="1200" 
d="M850 1000v-1000h-500v1000h-300v400h1100v-400h-300z" />
    <glyph glyph-name="U" unicode="U" horiz-adv-x="1298" 
d="M650 500q100 2 100 200v700h498v-700q0 -670 -550 -699v-1h-87v1q-561 22 -561 699v700h500v-700q0 -198 100 -200z" />
    <glyph glyph-name="V" unicode="V" horiz-adv-x="1500" 
d="M491 0l-441 1400h500l200 -600l200 600h500l-449 -1400h-510z" />
    <glyph glyph-name="W" unicode="W" horiz-adv-x="2150" 
d="M1073 300l-123 -300h-459l-441 1400h500l200 -600l150 600h346l154 -600l200 600h500l-449 -1400h-451z" />
    <glyph glyph-name="X" unicode="X" horiz-adv-x="1500" 
d="M475 700l-425 700h550l150 -247l150 247h550l-425 -700l425 -700h-550l-150 247l-150 -247h-550z" />
    <glyph glyph-name="Y" unicode="Y" horiz-adv-x="1500" 
d="M501 600l-451 800h500l200 -300l200 300h500l-449 -800v-600h-500v600z" />
    <glyph glyph-name="Z" unicode="Z" horiz-adv-x="1200" 
d="M1150 1400v-400l-500 -600h500v-400h-1100v400l500 600h-500v400h1100z" />
    <glyph glyph-name="bracketleft" unicode="[" horiz-adv-x="800" 
d="M750 1600v-400h-300v-1000h300v-400h-700v1800h700z" />
    <glyph glyph-name="backslash" unicode="\" horiz-adv-x="1415" 
d="M456 1600l909 -1800h-418l-897 1800h406z" />
    <glyph glyph-name="bracketright" unicode="]" horiz-adv-x="800" 
d="M750 1600v-1800h-700v400h300v1000h-300v400h700z" />
    <glyph glyph-name="asciicircum" unicode="^" horiz-adv-x="1100" 
d="M850 1400l200 -500h-400l-100 250l-100 -250h-400l200 500h600z" />
    <glyph glyph-name="underscore" unicode="_" 
d="M1250 400v-400h-1200v400h1200z" />
    <glyph glyph-name="grave" unicode="`" horiz-adv-x="700" 
d="M50 2000h400l200 -500h-400z" />
    <glyph glyph-name="a" unicode="a" horiz-adv-x="1500" 
d="M575 100l-25 -100h-500l400 1400h600l400 -1400h-500l-25 100h-350zM825 500l-75 300l-75 -300h150z" />
    <glyph glyph-name="b" unicode="b" 
d="M50 0v1400h800q400 0 400 -400q0 -250 -200 -300q200 -50 200 -300q0 -400 -400 -400h-800zM550 1000v-150h100q100 0 100 74q0 76 -100 76h-100zM550 550v-150h100q100 0 100 76q0 74 -100 74h-100z" />
    <glyph glyph-name="c" unicode="c" 
d="M750 0q-290 0 -495 205t-205 495t205 495t495 205t495 -205l5 -5l-354 -352l-4 4q-59 58 -142 58t-141.5 -58.5t-58.5 -141.5t58.5 -141.5t141.5 -58.5q82 0 140 57l354 -353q-205 -204 -494 -204z" />
    <glyph glyph-name="d" unicode="d" 
d="M50 0v1400h500q700 0 700 -700t-700 -700h-500zM550 500q200 0 200 200t-200 200v-400z" />
    <glyph glyph-name="e" unicode="e" horiz-adv-x="1100" 
d="M1050 1400v-400h-500v-100h400v-400h-400v-100h500v-400h-1000v1400h1000z" />
    <glyph glyph-name="f" unicode="f" horiz-adv-x="1100" 
d="M1050 1400v-400h-500v-100h500v-400h-500v-500h-500v1400h1000z" />
    <glyph glyph-name="g" unicode="g" horiz-adv-x="1400" 
d="M750 0q-290 0 -495 205t-205 495t205 495t495 205t495 -205l5 -5l-354 -352l-4 4q-59 58 -142 58t-141.5 -58.5t-58.5 -141.5t58.5 -141.5t141.5 -58.5q55 0 100 26v274h500v-800h-600z" />
    <glyph glyph-name="h" unicode="h" 
d="M50 1400h500v-500h200v500h500v-1400h-500v500h-200v-500h-500v1400z" />
    <glyph glyph-name="i" unicode="i" horiz-adv-x="600" 
d="M550 1400v-1400h-500v1400h500z" />
    <glyph glyph-name="j" unicode="j" horiz-adv-x="897" 
d="M250 500q100 0 100 189v711h497v-700q0 -700 -597 -700h-200v500h200z" />
    <glyph glyph-name="k" unicode="k" horiz-adv-x="1400" 
d="M550 1100l200 300h600l-550 -700l550 -700h-600l-200 300v-300h-500v1400h500v-300z" />
    <glyph glyph-name="l" unicode="l" horiz-adv-x="1000" 
d="M50 1400h500v-1000h400v-400h-900v1400z" />
    <glyph glyph-name="m" unicode="m" horiz-adv-x="1700" 
d="M1650 1400v-1400h-500v667l-300 -417l-300 414v-664h-500v1400h500l300 -450l300 450h500z" />
    <glyph glyph-name="n" unicode="n" 
d="M550 600v-600h-500v1400h500l200 -600v600h500v-1400h-500z" />
    <glyph glyph-name="o" unicode="o" horiz-adv-x="1500" 
d="M750 0q-290 0 -495 205t-205 495t205 495t495 205t495 -205t205 -495t-205 -495t-495 -205zM750 900q-83 0 -141.5 -58.5t-58.5 -141.5t58.5 -141.5t141.5 -58.5t141.5 58.5t58.5 141.5t-58.5 141.5t-141.5 58.5z" />
    <glyph glyph-name="p" unicode="p" 
d="M550 400v-400h-500v1400h800q400 0 400 -500t-400 -500h-300zM550 1000v-200h100q100 0 100 100t-100 100h-100z" />
    <glyph glyph-name="q" unicode="q" horiz-adv-x="1550" 
d="M750 900q-83 0 -141.5 -58.5t-58.5 -141.5t58.5 -141.5t141.5 -58.5t141.5 58.5t58.5 141.5t-58.5 141.5t-141.5 58.5zM916 18q-79 -18 -166 -18q-290 0 -495 205t-205 495t205 495t495 205t495 -205t205 -495q0 -223 -122 -396l172 -204l-400 -300z" />
    <glyph glyph-name="r" unicode="r" 
d="M550 1000v-200h100q100 0 100 100t-100 100h-100zM550 400v-400h-500v1400h800q400 0 400 -500q0 -369 -217 -465l217 -435h-500z" />
    <glyph glyph-name="s" unicode="s" 
d="M450 1400h700v-400h-500q-100 0 -100 -46q0 -54 100 -54h200q400 0 400 -446q0 -454 -400 -454h-700v400h500q100 0 100 54q0 46 -100 46h-200q-400 0 -400 454q0 446 400 446z" />
    <glyph glyph-name="t" unicode="t" horiz-adv-x="1200" 
d="M850 1000v-1000h-500v1000h-300v400h1100v-400h-300z" />
    <glyph glyph-name="u" unicode="u" horiz-adv-x="1298" 
d="M650 500q100 2 100 200v700h498v-700q0 -670 -550 -699v-1h-87v1q-561 22 -561 699v700h500v-700q0 -198 100 -200z" />
    <glyph glyph-name="v" unicode="v" horiz-adv-x="1500" 
d="M491 0l-441 1400h500l200 -600l200 600h500l-449 -1400h-510z" />
    <glyph glyph-name="w" unicode="w" horiz-adv-x="2150" 
d="M1073 300l-123 -300h-459l-441 1400h500l200 -600l150 600h346l154 -600l200 600h500l-449 -1400h-451z" />
    <glyph glyph-name="x" unicode="x" horiz-adv-x="1500" 
d="M475 700l-425 700h550l150 -247l150 247h550l-425 -700l425 -700h-550l-150 247l-150 -247h-550z" />
    <glyph glyph-name="y" unicode="y" horiz-adv-x="1500" 
d="M501 600l-451 800h500l200 -300l200 300h500l-449 -800v-600h-500v600z" />
    <glyph glyph-name="z" unicode="z" horiz-adv-x="1200" 
d="M1150 1400v-400l-500 -600h500v-400h-1100v400l500 600h-500v400h1100z" />
    <glyph glyph-name="braceleft" unicode="{" horiz-adv-x="1000" 
d="M250 900q0 700 700 700v-400q-300 0 -300 -300v-400q0 -300 300 -300v-400q-700 0 -700 700h-200v400h200z" />
    <glyph glyph-name="bar" unicode="|" horiz-adv-x="500" 
d="M450 1600v-1800h-400v1800h400z" />
    <glyph glyph-name="braceright" unicode="}" horiz-adv-x="1000" 
d="M750 500q0 -700 -700 -700v400q300 0 300 300v400q0 300 -300 300v400q700 0 700 -700h200v-400h-200z" />
    <glyph glyph-name="asciitilde" unicode="~" horiz-adv-x="1100" 
d="M50 433v400q150 50 275 50t225 -50q67 -33 145 -33q155 0 355 133v-400q-200 -133 -355 -133q-78 0 -145 33q-100 50 -225 50t-275 -50z" />
    <glyph glyph-name="sterling" unicode="&#xa3;" horiz-adv-x="1400" 
d="M650 600v-100h700v-500h-1200v600h-100v200h106q30 226 199 395q205 205 495 205t495 -205l5 -5l-354 -352l-4 4q-59 58 -142 58t-141 -58q-20 -20 -33 -42h174v-200h-200z" />
    <glyph glyph-name="yen" unicode="&#xa5;" horiz-adv-x="1500" 
d="M501 600l-451 800h500l200 -300l200 300h500l-449 -800h149v-200h-149v-50h149v-200h-149v-150h-500v150h-151v200h151v50h-151v200h151z" />
    <glyph glyph-name="acute" unicode="&#xb4;" horiz-adv-x="700" 
d="M450 1500h-400l200 500h400z" />
    <glyph glyph-name="divide" unicode="&#xf7;" horiz-adv-x="1100" 
d="M1050 1000v-400h-1000v400h1000zM727 427q73 -73 73 -177t-73 -177t-177 -73t-177 73t-73 177t73 177t177 73t177 -73zM727 1527q73 -73 73 -177t-73 -177t-177 -73t-177 73t-73 177t73 177t177 73t177 -73z" />
    <glyph glyph-name="circumflex" unicode="&#x2c6;" horiz-adv-x="1100" 
d="M850 2000l200 -500h-400l-100 250l-100 -250h-400l200 500h600z" />
    <glyph glyph-name="tilde" unicode="&#x2dc;" horiz-adv-x="1100" 
d="M50 1533v400q150 50 275 50t225 -50q67 -33 145 -33q155 0 355 133v-400q-200 -133 -355 -133q-78 0 -145 33q-100 50 -225 50t-275 -50z" />
    <glyph glyph-name="hungarumlaut" unicode="&#x2dd;" horiz-adv-x="1246" 
d="M450 900h-400l200 500h400zM996 900h-400l200 500h400z" />
    <glyph glyph-name="endash" unicode="&#x2013;" horiz-adv-x="1100" 
d="M1050 900v-400h-1000v400h1000z" />
    <glyph glyph-name="emdash" unicode="&#x2014;" horiz-adv-x="1999" 
d="M1949 900v-400h-1899v400h1899z" />
    <glyph glyph-name="quoteleft" unicode="&#x2018;" horiz-adv-x="500" 
d="M450 1400v-600h-400v600h400z" />
    <glyph glyph-name="quoteright" unicode="&#x2019;" horiz-adv-x="500" 
d="M450 1400v-600h-400v600h400z" />
    <glyph glyph-name="quotesinglbase" unicode="&#x201a;" horiz-adv-x="500" 
d="M450 200v-600h-400v600h400z" />
    <glyph glyph-name="quotedblleft" unicode="&#x201c;" horiz-adv-x="1000" 
d="M450 1400v-600h-400v600h400zM950 1400v-600h-400v600h400z" />
    <glyph glyph-name="quotedblright" unicode="&#x201d;" horiz-adv-x="1000" 
d="M450 1400v-600h-400v600h400zM950 1400v-600h-400v600h400z" />
    <glyph glyph-name="quotedblbase" unicode="&#x201e;" horiz-adv-x="1000" 
d="M450 200v-600h-400v600h400zM950 200v-600h-400v600h400z" />
    <glyph glyph-name="bullet" unicode="&#x2022;" horiz-adv-x="600" 
d="M477 927q73 -73 73 -177t-73 -177t-177 -73t-177 73t-73 177t73 177t177 73t177 -73z" />
    <glyph glyph-name="ellipsis" unicode="&#x2026;" horiz-adv-x="1799" 
d="M477 427q73 -73 73 -177t-73 -177t-177 -73t-177 73t-73 177t73 177t177 73t177 -73zM1079 427q73 -73 73 -177t-73 -177t-177 -73t-177 73t-73 177t73 177t177 73t177 -73zM1676 427q73 -73 73 -177t-73 -177t-177 -73t-177 73t-73 177t73 177t177 73t177 -73z" />
    <glyph glyph-name="guilsinglleft" unicode="&#x2039;" horiz-adv-x="1200" 
d="M50 900l1100 500v-400l-700 -300l700 -300v-400l-1100 500v400z" />
    <glyph glyph-name="guilsinglright" unicode="&#x203a;" horiz-adv-x="1200" 
d="M1150 500l-1100 -500v400l700 300l-700 300v400l1100 -500v-400z" />
    <glyph glyph-name="Euro" unicode="&#x20ac;" horiz-adv-x="1400" 
d="M156 800q30 226 199 395q205 205 495 205t495 -205l5 -5l-354 -352l-4 4q-59 58 -142 58t-141 -58q-20 -20 -33 -42h174v-200h-174q13 -22 33 -41q58 -59 141 -59q82 0 140 57l354 -353q-205 -204 -494 -204q-290 0 -495 205q-169 169 -199 395h-106v200h106z" />
    <glyph glyph-name="trademark" unicode="&#x2122;" horiz-adv-x="1174" 
d="M353 1258v-358h-143v358h-160v143h465v-143h-162zM1124 1401v-501h-143v239l-72 -239h-143l-71 238v-238h-143v501h178l108 -286l107 286h179z" />
    <glyph glyph-name="minus" unicode="&#x2212;" horiz-adv-x="1100" 
d="M1050 900v-400h-1000v400h1000z" />
    </font>
</defs>
</svg>
