<svg id="colours" enable-background="new 0 0 300 300" height="512" viewBox="0 0 300 300" width="512" xmlns="http://www.w3.org/2000/svg"><g><circle cx="168.001" cy="174.003" fill="#ffc7c7" r="86"/><g fill="#4c241d"><path d="m231.657 253.659c-1.023 0-2.047-.391-2.828-1.172l-11.312-11.312c-1.562-1.562-1.562-4.094 0-5.656s4.094-1.562 5.656 0l11.312 11.312c1.562 1.562 1.562 4.094 0 5.656-.781.782-1.804 1.172-2.828 1.172z"/><path d="m220.345 253.659c-1.023 0-2.047-.391-2.828-1.172-1.562-1.562-1.562-4.094 0-5.656l11.312-11.312c1.562-1.562 4.094-1.562 5.656 0s1.562 4.094 0 5.656l-11.312 11.312c-.781.782-1.805 1.172-2.828 1.172z"/><circle cx="234.001" cy="192.003" r="4"/></g><g><path d="m143.62 44.202c-49.799 3.091-90.33 43.622-93.421 93.421-3.608 58.119 42.461 106.381 99.802 106.381v-28c-8.837 0-16-7.163-16-16v-4c0-8.837 7.163-16 16-16h63.4c19.833 0 36.525-15.786 36.6-35.619 0-.127.001-.254.001-.381-.001-57.342-48.263-103.41-106.382-99.802z" fill="#efefd2"/><path d="m150.001 248.003c-28.586 0-56.215-11.953-75.797-32.789-19.859-21.133-29.801-48.773-27.996-77.836 3.234-52.16 45.008-93.934 97.168-97.168 29.004-1.828 56.703 8.137 77.836 27.996 20.836 19.582 32.789 47.211 32.789 75.797-.082 22.234-18.297 40-40.602 40h-63.398c-6.617 0-12 5.383-12 12v4c0 6.617 5.383 12 12 12 2.211 0 4 1.789 4 4v28c0 2.211-1.789 4-4 4zm.066-200c-2.055 0-4.121.062-6.199.191-48.137 2.988-86.688 41.539-89.676 89.676-1.668 26.84 7.512 52.359 25.84 71.863 17.43 18.543 40.727 29.172 65.969 30.188v-20.32c-9.117-1.859-16-9.938-16-19.598v-4c0-11.027 8.973-20 20-20h63.398c17.91 0 32.535-14.191 32.602-31.637 0-27.137-10.75-51.988-30.27-70.332-17.996-16.91-41.113-26.031-65.664-26.031zm-6.445-3.801h.039z" fill="#4c241d"/></g><g><circle cx="210.001" cy="112.003" fill="#bd53b5" r="16"/><path d="m210.001 132.003c-11.027 0-20-8.973-20-20s8.973-20 20-20 20 8.973 20 20-8.973 20-20 20zm0-32c-6.617 0-12 5.383-12 12s5.383 12 12 12 12-5.383 12-12-5.383-12-12-12z" fill="#4c241d"/></g><g><circle cx="86.001" cy="124.003" fill="#ffce56" r="16"/><path d="m86.001 144.003c-11.027 0-20-8.973-20-20s8.973-20 20-20 20 8.973 20 20-8.973 20-20 20zm0-32c-6.617 0-12 5.383-12 12s5.383 12 12 12 12-5.383 12-12-5.383-12-12-12z" fill="#4c241d"/></g><g><circle cx="90.001" cy="176.003" fill="#fc8c29" r="16"/><path d="m90.001 196.003c-11.027 0-20-8.973-20-20s8.973-20 20-20 20 8.973 20 20-8.973 20-20 20zm0-32c-6.617 0-12 5.383-12 12s5.383 12 12 12 12-5.383 12-12-5.383-12-12-12z" fill="#4c241d"/></g><g><circle cx="170.001" cy="80.003" fill="#e66353" r="16"/><path d="m170.001 100.003c-11.027 0-20-8.973-20-20s8.973-20 20-20 20 8.973 20 20-8.973 20-20 20zm0-32c-6.617 0-12 5.383-12 12s5.383 12 12 12 12-5.383 12-12-5.383-12-12-12z" fill="#4c241d"/></g><g><path d="m118.001 68.003c-8.837 0-16 7.163-16 16 0 8.836 7.163 16 16 16 1.39 0 2.714-.232 4-.565v6.565c0 3.313 2.687 6 6 6s6-2.687 6-6v-22c0-8.837-7.163-16-16-16z" fill="#9dc1e4"/><path d="m128.001 116.003c-5.516 0-10-4.484-10-10v-2c-11.027 0-20-8.973-20-20s8.973-20 20-20 20 8.973 20 20v22c0 5.516-4.484 10-10 10zm-6-20.566c.879 0 1.742.289 2.449.836.977.758 1.551 1.926 1.551 3.164v6.566c0 1.102.898 2 2 2s2-.898 2-2v-22c0-6.617-5.383-12-12-12s-12 5.383-12 12 5.383 12 12 12c.887 0 1.84-.141 3-.438.328-.085.664-.128 1-.128z" fill="#4c241d"/></g><path d="m122.001 104.003c-2.211 0-4-1.789-4-4v-8c0-2.211 1.789-4 4-4s4 1.789 4 4v8c0 2.211-1.789 4-4 4z" fill="#4c241d"/></g></svg>