<svg id="Layer_2_copy" data-name="Layer 2 copy" xmlns="http://www.w3.org/2000/svg" viewBox="0 0 568 374"><title>wasd</title><path d="M755.47,829H881V701.5h3V829h76.53A13.47,13.47,0,0,0,974,815.53V658.47A13.47,13.47,0,0,0,960.53,645h-30V777h-3V645H836.9l-.4,131h-3l.4-131H755.47A13.47,13.47,0,0,0,742,658.47V815.53A13.47,13.47,0,0,0,755.47,829Z" transform="translate(-648 -645)"/><path d="M818.53,835H661.47A13.47,13.47,0,0,0,648,848.47v157.06A13.47,13.47,0,0,0,661.47,1019h78.9l.25-82.24h3l-.25,82.23h75.16A13.47,13.47,0,0,0,832,1005.53V848.47A13.47,13.47,0,0,0,818.53,835Zm-33,58.77H695.12v-3H785.5Z" transform="translate(-648 -645)"/><path d="M935,891.36l89-.36V848.47A13.47,13.47,0,0,0,1010.53,835H853.47A13.47,13.47,0,0,0,840,848.47V959.29l88.74-.36,0,3-88.76.36v43.24A13.47,13.47,0,0,0,853.47,1019h157.06a13.47,13.47,0,0,0,13.47-13.47V894l-89,.36Z" transform="translate(-648 -645)"/><path d="M1202.53,835H1045.47A13.47,13.47,0,0,0,1032,848.47v157.06a13.47,13.47,0,0,0,13.47,13.47h157.06a13.47,13.47,0,0,0,13.47-13.47V848.47A13.47,13.47,0,0,0,1202.53,835ZM1093.68,971.37l-.36-89.5h3l.36,89.5Z" transform="translate(-648 -645)"/></svg>