<svg height="496pt" viewBox="0 0 496 496" width="496pt" xmlns="http://www.w3.org/2000/svg" xmlns:xlink="http://www.w3.org/1999/xlink"><linearGradient id="a" gradientUnits="userSpaceOnUse" x1="248" x2="248" y1="496" y2="0"><stop offset="0" stop-color="#9f2fff"/><stop offset="1" stop-color="#0bb1d3"/></linearGradient><path d="m64 304h16v16h-16zm48 16h16v-16h-16zm48 0h16v-16h-16zm256-40v32h64v136h16v48h-496v-48h16v-176h64v-152h-48c-17.648438 0-32-14.351562-32-32 0-15.070312 10.480469-27.742188 24.519531-31.121094 3.457031-23.09375 23.433594-40.878906 47.480469-40.878906 8.464844 0 16.65625 2.257812 24 6.566406 4.992188-2.933594 10.398438-4.832031 16-5.796875v-16.769531h272v48h32v128.769531c2.632812-.457031 5.296875-.769531 8-.769531 24.046875 0 44.023438 17.785156 47.480469 40.878906 14.039062 3.378906 24.519531 16.050782 24.519531 31.121094 0 17.648438-14.351562 32-32 32zm8-88c-6.855469 0-13.496094 2.273438-19.175781 6.558594l-4.824219 3.640625-4.824219-3.640625c-5.679687-4.285156-12.320312-6.558594-19.175781-6.558594-17.648438 0-32 14.351562-32 32v8h-8c-8.824219 0-16 7.175781-16 16s7.175781 16 16 16h128c8.824219 0 16-7.175781 16-16s-7.175781-16-16-16h-8v-8c0-17.648438-14.351562-32-32-32zm-56-176h-112v32h112zm-240 0v32h112v-32zm-48 88v-56h32v-14.839844c-3.960938 1.0625-7.753906 2.816406-11.175781 5.398438l-4.824219 3.640625-4.824219-3.640625c-5.679687-4.285156-12.320312-6.558594-19.175781-6.558594-17.648438 0-32 14.351562-32 32v8h-8c-8.824219 0-16 7.175781-16 16s7.175781 16 16 16zm16 168h128v40h16v-248h-144zm384 192h-464v16h464zm-208-72h-32v56h32zm80 0h-32v56h32zm80 0h-32v56h32zm32-64h-240v16h208v16h-224v-72h-176v160h32v-112h16v112h32v-112h16v112h32v-112h16v112h48v-72h64v72h16v-72h64v72h16v-72h64v72h16v-88h-16v-16h16zm-64-48h-64c-17.648438 0-32-14.351562-32-32 0-9.558594 4.230469-18.128906 10.902344-24h-42.902344v-16h58.792969c6.613281-18.609375 24.359375-32 45.207031-32 8.464844 0 16.65625 2.257812 24 6.566406v-118.566406h-144v248h144zm-176-200h-112v16h112zm0 64h-112v16h112zm0 64h-112v16h112zm-80-80v-16h-16v16zm32 0v-16h-16v16zm32 0v-16h-16v16zm-64 64v-16h-16v16zm32 0v-16h-16v16zm32 0v-16h-16v16zm-80 64h16v-16h-16zm32 0h16v-16h-16zm32 0h16v-16h-16zm192-176h-112v16h112zm0 64h-112v16h112zm-80-16v-16h-16v16zm32 0v-16h-16v16zm32 0v-16h-16v16zm-80 64h16v-16h-16zm32 0h16v-16h-16zm0 0" fill="url(#a)"/></svg>